<svg width="22" height="22" viewBox="0 0 22 22" fill="none" xmlns="http://www.w3.org/2000/svg">
<rect width="22" height="22" rx="1" fill="#001B94"/>
<path d="M11 4V5.75M15.9498 6.05022L14.7123 7.28767M18 11H16.25M15.9498 15.9498L14.7123 14.7123M11 16.25V18M7.28767 14.7123L6.05022 15.9498M5.75 11H4M7.28767 7.28767L6.05022 6.05022M13.9167 11C13.9167 11.7735 13.6094 12.5154 13.0624 13.0624C12.5154 13.6094 11.7735 13.9167 11 13.9167C10.2265 13.9167 9.48459 13.6094 8.93761 13.0624C8.39062 12.5154 8.08333 11.7735 8.08333 11C8.08333 10.2265 8.39062 9.48459 8.93761 8.93761C9.48459 8.39062 10.2265 8.08333 11 8.08333C11.7735 8.08333 12.5154 8.39062 13.0624 8.93761C13.6094 9.48459 13.9167 10.2265 13.9167 11Z" stroke="white" stroke-width="1.5" stroke-linecap="round" stroke-linejoin="round"/>
</svg>
